# xmcd
# 
# Track frame offsets:
#     150
#     10508
#     23716
#     40356
#     51444
#     63133
#     77414
#     88930
#     102784
#     121220
# 
# Disc length: 1832
# 
# Revision: 1
# Processed by: cddbd v1.5.2PL0 Copyright (c) Steve Scherf et al.
# Submitted via: BonkEnc v1.0.6
# 
DISCID=6f07260a
DTITLE=Various Artist - Best Of Country Disc 1
DYEAR=2006
DGENRE=Country
TTITLE0=Faron Young - Hello Walls
TTITLE1=Lynn Anderson - Rose Garden
TTITLE2=T.G. Sheppard - Last Cheater's Waltz
TTITLE3=Jack Greene - There Goes My Everything
TTITLE4=Donna Fargo - Happiest Girl in the Whole USA
TTITLE5=T. Graham Brown - Hell and High Water
TTITLE6=Holly Dunn -  Are You Ever Gonna Love Me
TTITLE7=Moe Bandy - I Cheated Me Right Out of You
TTITLE8=Juice Newton - The Sweetest Thing (I've Ever Known)
TTITLE9=Exile - She's a Miracle
EXTD=Disc 1
EXTT0=
EXTT1=
EXTT2=
EXTT3=
EXTT4=
EXTT5=
EXTT6=
EXTT7=
EXTT8=
EXTT9=
PLAYORDER=
